<?xml version="1.0" encoding="UTF-8" standalone="no"?>
<svg
   xmlns:dc="http://purl.org/dc/elements/1.1/"
   xmlns:cc="http://creativecommons.org/ns#"
   xmlns:rdf="http://www.w3.org/1999/02/22-rdf-syntax-ns#"
   xmlns:svg="http://www.w3.org/2000/svg"
   xmlns="http://www.w3.org/2000/svg"
   xmlns:sodipodi="http://sodipodi.sourceforge.net/DTD/sodipodi-0.dtd"
   xmlns:inkscape="http://www.inkscape.org/namespaces/inkscape"
   inkscape:version="1.0 (4035a4fb49, 2020-05-01)"
   height="137.62604"
   width="123.00775"
   sodipodi:docname="logo.svg"
   xml:space="preserve"
   viewBox="0 0 123.00776 137.62604"
   y="0px"
   x="0px"
   id="Layer_1"
   version="1.1"><metadata
   id="metadata77"><rdf:RDF><cc:Work
       rdf:about=""><dc:format>image/svg+xml</dc:format><dc:type
         rdf:resource="http://purl.org/dc/dcmitype/StillImage" /></cc:Work></rdf:RDF></metadata><defs
   id="defs75" /><sodipodi:namedview
   inkscape:snap-to-guides="true"
   inkscape:snap-grids="true"
   inkscape:current-layer="Layer_1"
   inkscape:window-maximized="1"
   inkscape:window-y="-8"
   inkscape:window-x="-8"
   inkscape:cy="256.00111"
   inkscape:cx="228.80914"
   inkscape:zoom="1.1739055"
   showgrid="true"
   id="namedview73"
   inkscape:window-height="1017"
   inkscape:window-width="1920"
   inkscape:pageshadow="2"
   inkscape:pageopacity="0"
   guidetolerance="10"
   gridtolerance="10"
   objecttolerance="10"
   borderopacity="1"
   bordercolor="#666666"
   pagecolor="#ffffff" />
<path
   id="path2"
   d="M 87.284911,42.546909 53.449442,40.935721 c -0.622272,-0.02957 -1.22976,0.196762 -1.680806,0.626842 -0.448627,0.426854 -0.706407,1.02601 -0.706407,1.649088 V 49.6564 c 0,1.133799 0.834087,2.095565 1.956058,2.255501 l 45.114048,6.444747 c 0.723611,0.103488 1.436463,-0.147034 1.934015,-0.644582 0.17015,-0.170151 0.31504,-0.368794 0.42659,-0.592167 0.43867,-0.877363 0.26664,-1.936433 -0.42686,-2.630206 L 88.787503,43.211113 c -0.400512,-0.399974 -0.936502,-0.637056 -1.502592,-0.664204 z"
   style="fill:#e8e6d9;stroke-width:0.2688" />
<path
   id="path4"
   d="m 109.34237,27.330678 c -3.50112,0 -7.00197,-1.332712 -9.667396,-3.998132 v 0 c -5.330304,-5.330573 -5.330304,-14.0039428 0,-19.3345156 5.330846,-5.3305728 14.003676,-5.3308416 19.335056,0 5.3303,5.3305728 5.3303,14.0039426 0,19.3345156 -2.66569,2.66542 -6.16654,3.998132 -9.66766,3.998132 z m -6.44475,-7.220238 c 3.55407,3.553805 9.33623,3.553536 12.88976,0 3.55381,-3.553805 3.55381,-9.335962 0,-12.8897664 -3.55407,-3.5540736 -9.33622,-3.5538048 -12.88976,0 -3.553536,3.5538044 -3.553536,9.3359614 0,12.8897664 z"
   style="fill:#11bba3;stroke-width:0.2688" />
<g
   transform="matrix(0.2688,0,0,0.2688,-7.3090339,1.6800217e-4)"
   id="g10">
	<path
   id="path6"
   d="m 405.216,55.271 v 0 l -31.9,-28.355 c -3.145,-2.795 -7.925,-2.654 -10.899,0.32 l -83.918,83.918 c -2.975,2.975 -3.116,7.754 -0.32,10.899 l 28.355,31.9 v 0 l 55.347,-47.93 z"
   style="fill:#72ccc5" />
	<path
   id="path8"
   d="M 481.211,122.821 443.297,89.12 v 0 l -55.27,48.912 -47.643,54 v 0 l 33.702,37.914 c 2.992,3.366 8.372,3.527 11.559,0.339 l 95.906,-95.906 c 3.187,-3.186 3.026,-8.565 -0.34,-11.558 z"
   style="fill:#72ccc5" />
</g>
<path
   id="path12"
   d="m 75.270622,34.385334 c -2.070026,-2.070029 -3.980389,-4.239513 -5.735114,-6.490982 l -1.983475,1.983475 c -0.79968,0.79968 -0.837581,2.084275 -0.08602,2.929651 l 25.779534,29.001637 c 0.804517,0.904781 2.250395,0.948058 3.107055,0.09112 L 105.97995,52.2729 C 94.732281,49.183581 84.108234,43.223209 75.270622,34.385334 Z"
   style="fill:#11bba3;stroke-width:0.2688" />
<polygon
   transform="matrix(0.2688,0,0,0.2688,-7.3090339,1.6800217e-4)"
   id="polygon14"
   points="340.383,192.033 443.297,89.12 405.216,55.271 306.535,153.953 "
   style="fill:#e8e6d9" />
<path
   id="path16"
   d="m 46.343177,35.18367 c -1.163098,2.69e-4 -2.136154,0.973056 -2.136423,2.136423 v 18.228941 c 0,1.179761 0.956391,2.136152 2.136154,2.136152 2.8896,0 5.733504,-1.146701 7.802995,-3.14684 0.04596,-0.04409 0.09059,-0.08817 0.135475,-0.133594 3.225599,-3.2256 4.202687,-8.164531 2.42565,-12.352973 -1.742898,-4.107533 -5.907954,-6.86784 -10.363851,-6.868109 z"
   style="fill:#72ccc5;stroke-width:0.2688" />
<path
   id="path18"
   d="m 78.797012,37.673027 -3.709979,3.709978 9.09888,10.236173 5.918171,-5.91817 c -3.965066,-2.25577 -7.755419,-4.931405 -11.307072,-8.027981 z"
   style="fill:#dddac5;stroke-width:0.2688" />
<path
   id="path20"
   d="m 44.207023,53.924676 v 1.624358 c 0,1.179761 0.95639,2.136152 2.136154,2.136152 2.8896,0 5.733504,-1.146701 7.802995,-3.14684 0.04596,-0.04409 0.09058,-0.08817 0.135475,-0.133594 1.327066,-1.327065 2.272703,-2.944435 2.803314,-4.680076 -3.732824,3.014054 -8.335756,4.41504 -12.877938,4.2 z"
   style="fill:#11bba3;stroke-width:0.2688" />
<g
   transform="matrix(0.2688,0,0,0.2688,-7.3090339,1.6800217e-4)"
   id="g28">
	<path
   id="path22"
   d="m 148.77,261.247 c -6.406,0 -10.167,-7.508 -6.405,-12.643 5.237,-7.15 11.087,-13.945 17.385,-20.196 3.115,-3.091 8.147,-3.072 11.238,0.043 3.092,3.115 3.072,8.147 -0.042,11.238 -5.711,5.667 -11.013,11.825 -15.759,18.305 -1.556,2.127 -3.97,3.253 -6.417,3.253 z"
   style="fill:#198a82" />
	<path
   id="path24"
   d="m 112.112,259.255 c -6.039,0 -9.885,-6.765 -6.857,-11.955 4.432,-7.593 9.416,-14.969 14.812,-21.923 2.69,-3.468 7.684,-4.095 11.15,-1.406 3.467,2.691 4.096,7.683 1.405,11.15 -4.97,6.404 -9.56,13.199 -13.642,20.191 -1.475,2.532 -4.135,3.943 -6.868,3.943 z m 31.093,-40.068 c -6.971,0 -10.525,-8.715 -5.587,-13.598 6.251,-6.181 12.973,-12.01 19.98,-17.323 3.5,-2.653 8.482,-1.966 11.134,1.531 2.651,3.498 1.966,8.482 -1.531,11.134 -6.456,4.894 -12.65,10.263 -18.408,15.959 -1.548,1.533 -3.569,2.297 -5.588,2.297 z"
   style="fill:#198a82" />
	<path
   id="path26"
   d="m 72.088,257.921 c -5.754,0 -9.636,-6.197 -7.168,-11.37 3.76,-7.882 8.009,-15.645 12.626,-23.073 2.318,-3.728 7.219,-4.87 10.945,-2.553 3.728,2.318 4.871,7.218 2.553,10.946 -4.308,6.929 -8.271,14.17 -11.778,21.522 -1.363,2.858 -4.21,4.528 -7.178,4.528 z m 26.8,-43.104 c -6.529,0 -10.254,-7.767 -6.238,-12.865 5.4,-6.856 11.247,-13.491 17.382,-19.724 3.078,-3.13 8.11,-3.167 11.238,-0.088 3.127,3.079 3.167,8.11 0.088,11.238 -5.725,5.817 -11.184,12.01 -16.224,18.409 -1.566,1.991 -3.894,3.03 -6.246,3.03 z m 35.615,-36.163 c -3.468,0 -6.618,-2.335 -7.617,-5.658 -0.917,-3.052 0.125,-6.444 2.598,-8.455 6.778,-5.513 13.938,-10.704 21.278,-15.431 3.691,-2.375 8.608,-1.311 10.984,2.379 2.376,3.69 1.311,8.608 -2.379,10.984 -6.849,4.411 -13.53,9.256 -19.856,14.399 -1.473,1.2 -3.247,1.782 -5.008,1.782 z"
   style="fill:#198a82" />
</g>
<path
   id="path30"
   d="M 13.498236,72.52133 C 12.71119,71.439949 11.079574,71.355011 10.183932,72.347954 8.6832221,74.012365 1.1845088,82.564776 0.92780478,87.470642 0.78614718,90.16805 1.7035616,92.758477 3.510704,94.765608 c 1.8074112,2.007131 4.2881661,3.19039 6.985036,3.33151 0.181172,0.0097 0.361805,0.01449 0.541364,0.01449 2.500646,0 4.881139,-0.911771 6.753331,-2.597686 2.007129,-1.807141 3.190387,-4.287626 3.331507,-6.984768 0.257779,-4.906139 -6.30551,-14.195328 -7.623706,-16.007845 z"
   style="fill:#66bf00;stroke-width:0.2688" />
<path
   id="path32"
   d="m 13.173526,95.532493 c -0.180096,0 -0.360461,-0.0049 -0.541363,-0.01449 C 9.9347549,95.376617 7.4542685,94.193624 5.6471262,92.1865 3.839984,90.179369 2.9228384,87.588676 3.0642272,84.891534 3.2359904,81.615401 6.635235,76.715716 9.3229661,73.324531 6.8559198,76.175428 1.1517152,83.202392 0.92780478,87.470936 c -0.1416576,2.697408 0.77575682,5.287835 2.58289922,7.294966 1.8074112,2.007131 4.2881661,3.19039 6.985036,3.33151 0.181172,0.0097 0.361805,0.01449 0.541364,0.01449 2.500646,0 4.881139,-0.911771 6.753331,-2.597686 0.799949,-0.720384 1.466841,-1.549093 1.99127,-2.454683 -1.849613,1.60447 -4.170701,2.47296 -6.608179,2.47296 z"
   style="fill:#58ab23;stroke-width:0.2688" />
<path
   id="path34"
   d="m 37.847484,84.335902 c -0.521472,-1.229228 -2.093146,-1.682422 -3.189581,-0.916608 -1.837248,1.283247 -11.071334,7.923685 -12.427967,12.645423 -1.539956,5.358523 1.566566,10.970803 6.924825,12.511033 0.929779,0.26718 1.866547,0.39459 2.788531,0.39459 4.394342,0 8.449459,-2.8904 9.722227,-7.31942 1.357171,-4.722011 -2.942285,-15.251978 -3.818035,-17.315018 z"
   style="fill:#66bf00;stroke-width:0.2688" />
<path
   id="path36"
   d="m 35.023202,106.19902 c -0.921984,0 -1.858752,-0.12715 -2.788531,-0.3946 -5.358527,-1.53996 -8.465318,-7.15223 -6.924825,-12.511031 0.537869,-1.871919 2.314905,-4.044635 4.37687,-6.066277 -3.139315,2.623754 -6.658982,6.061706 -7.456512,8.837878 -1.539955,5.35853 1.566567,10.9708 6.924825,12.51102 0.92978,0.26719 1.866548,0.3946 2.788532,0.3946 3.230976,0 6.277017,-1.56388 8.170176,-4.15188 -1.52544,0.88758 -3.278823,1.38029 -5.090535,1.38029 z"
   style="fill:#58ab23;stroke-width:0.2688" />
<path
   id="path38"
   d="m 35.220501,94.139038 c -0.05081,-1.178961 -1.046438,-2.088044 -2.225932,-2.042614 -1.178688,0.05082 -2.093146,1.047242 -2.042612,2.22593 0.0051,0.113974 0.315572,10.954946 -12.177445,16.482286 -0.716352,-2.33695 -1.520333,-4.49891 -2.286413,-6.55819 -2.307379,-6.202287 -4.299725,-11.559205 -3.415642,-19.063023 0.138163,-1.171702 -0.699686,-2.233189 -1.871385,-2.371355 -1.173581,-0.136822 -2.2337283,0.699685 -2.3713539,1.871653 -1.0045056,8.527141 1.2582529,14.611163 3.6543359,21.052415 2.027558,5.45126 4.124467,11.08827 4.290317,18.74692 0.025,1.1639 0.976281,2.09019 2.134809,2.09019 0.01559,0 0.03145,0 0.04704,-4.5e-4 1.179764,-0.0253 2.115188,-1.00236 2.089383,-2.18185 -0.07526,-3.47209 -0.521472,-6.57404 -1.16041,-9.41364 7.934438,-3.31565 11.682048,-8.50779 13.437312,-12.38899 2.041267,-4.514498 1.904985,-8.290872 1.897996,-8.449198 z"
   style="fill:#508913;stroke-width:0.2688" />
<path
   id="path40"
   d="m 19.142499,121.7706 c -8.569344,0 -15.9062398,5.25799 -18.97136625,12.72257 -0.6134016,1.49426 0.4988928,3.13286 2.11438085,3.13286 H 36.000021 c 1.61522,0 2.727783,-1.6386 2.114381,-3.13286 C 35.048738,127.02833 27.711573,121.7706 19.142499,121.7706 Z"
   style="fill:#b9873c;stroke-width:0.2688" />
<g
   transform="translate(-27.191345,6.2500646e-4)"
   id="g42">
</g>
<g
   transform="translate(-27.191345,6.2500646e-4)"
   id="g44">
</g>
<g
   transform="translate(-27.191345,6.2500646e-4)"
   id="g46">
</g>
<g
   transform="translate(-27.191345,6.2500646e-4)"
   id="g48">
</g>
<g
   transform="translate(-27.191345,6.2500646e-4)"
   id="g50">
</g>
<g
   transform="translate(-27.191345,6.2500646e-4)"
   id="g52">
</g>
<g
   transform="translate(-27.191345,6.2500646e-4)"
   id="g54">
</g>
<g
   transform="translate(-27.191345,6.2500646e-4)"
   id="g56">
</g>
<g
   transform="translate(-27.191345,6.2500646e-4)"
   id="g58">
</g>
<g
   transform="translate(-27.191345,6.2500646e-4)"
   id="g60">
</g>
<g
   transform="translate(-27.191345,6.2500646e-4)"
   id="g62">
</g>
<g
   transform="translate(-27.191345,6.2500646e-4)"
   id="g64">
</g>
<g
   transform="translate(-27.191345,6.2500646e-4)"
   id="g66">
</g>
<g
   transform="translate(-27.191345,6.2500646e-4)"
   id="g68">
</g>
<g
   transform="translate(-27.191345,6.2500646e-4)"
   id="g70">
</g>
</svg>
