<svg width="354" height="203" viewBox="0 0 354 203" fill="none" xmlns="http://www.w3.org/2000/svg">
<path opacity="0.286551" d="M49 163C102.21 170.955 79.8886 145.446 113 144C146.545 142.554 132.407 98.3322 191.706 123.72C227.033 133.484 206.846 70.9918 267.894 89.4213C285.083 94.6103 297.432 113.286 317 118C327.187 120.454 347.983 104.875 354 112C377.475 139.8 368 206.819 368 206.819L0 206C0 206 17.4791 158.3 49 163Z" fill="#67A684"/>
<path d="M326.226 109.504C326.226 109.504 326.226 109.465 326.226 109.504C326.186 109.426 326.146 109.387 326.106 109.348C323.558 106.076 324.354 101.284 324.593 100.233C324.593 100.155 324.633 100.116 324.633 100.038V99.9988C324.713 99.5314 324.753 99.0639 324.753 98.5964C324.753 94.4281 321.289 91 316.989 91C312.729 91 309.225 94.3892 309.225 98.5964C309.225 99.0639 309.265 99.5314 309.384 99.9988V100.038C309.384 100.116 309.424 100.155 309.424 100.233C309.663 101.323 310.419 106.115 307.911 109.348C307.871 109.387 307.871 109.426 307.831 109.465C307.831 109.465 307.831 109.465 307.831 109.504C306.677 111.218 306 113.283 306 115.503C306 121.464 310.937 126.294 317.029 126.294C323.12 126.294 328.057 121.464 328.057 115.503C328.097 113.283 327.42 111.218 326.226 109.504Z" fill="#5E9778"/>
<path d="M317.029 101.29V139.29" stroke="white" stroke-width="0.754941"/>
<path d="M310.844 109.359L317.02 118.183" stroke="white" stroke-width="0.754941"/>
<path d="M321.487 102.898L317.075 108.192" stroke="white" stroke-width="0.754941"/>
<path d="M275.226 116.504C275.226 116.504 275.226 116.465 275.226 116.504C275.186 116.426 275.146 116.387 275.106 116.348C272.558 113.076 273.354 108.284 273.593 107.233C273.593 107.155 273.633 107.116 273.633 107.038V106.999C273.713 106.531 273.753 106.064 273.753 105.596C273.753 101.428 270.289 98 265.989 98C261.729 98 258.225 101.389 258.225 105.596C258.225 106.064 258.265 106.531 258.384 106.999V107.038C258.384 107.116 258.424 107.155 258.424 107.233C258.663 108.323 259.419 113.115 256.911 116.348C256.871 116.387 256.871 116.426 256.831 116.465C256.831 116.465 256.831 116.465 256.831 116.504C255.677 118.218 255 120.283 255 122.503C255 128.464 259.937 133.294 266.029 133.294C272.12 133.294 277.057 128.464 277.057 122.503C277.097 120.283 276.42 118.218 275.226 116.504Z" fill="#5E9778"/>
<path d="M266.029 108.29L266.02 158.5" stroke="white" stroke-width="0.754941"/>
<path d="M259.844 116.359L266.02 125.183" stroke="white" stroke-width="0.754941"/>
<path d="M270.487 109.898L266.075 115.192" stroke="white" stroke-width="0.754941"/>
<path opacity="0.286551" d="M195 208C241.903 215.955 225.813 162.446 255 161C277.989 159.876 280.842 129.168 305 134C320 137 320 148 332 135C344 102 357 118 357 118L354 210C354 210 167.215 203.3 195 208Z" fill="#71B791"/>
<path opacity="0.654971" fill-rule="evenodd" clip-rule="evenodd" d="M47.3819 18.7897C41.4199 20.2961 36.3086 16.2687 36.3086 16.2687C36.3086 16.2687 30.3437 9.03411 39.7908 6.5731C42.3031 5.91863 42.9273 4.70603 43.5141 3.5661C44.0236 2.57642 44.5048 1.64151 46.1691 1.17418C49.0501 0.365152 50.452 1.57285 51.5783 2.54312C52.7909 3.5878 53.6841 4.35725 55.76 2.03798C60.8601 -3.66004 67.2881 6.5731 67.2881 6.5731C67.2881 6.5731 78.5238 0.729802 81.4748 9.62754C84.4257 18.5253 74.2123 20.2077 69.0058 18.7897C67.7903 18.4586 66.5482 19.291 65.0412 20.3009C63.2208 21.5209 61.0137 23 58 23C55.0089 23 52.9871 21.5434 51.3015 20.3289C49.8827 19.3068 48.7021 18.4561 47.3819 18.7897ZM274.63 34.593C265.439 36.8854 257.559 30.7568 257.559 30.7568C257.559 30.7568 248.363 19.7476 262.927 16.0026C266.801 15.0066 267.763 13.1614 268.668 11.4267C269.453 9.92064 270.195 8.49796 272.761 7.7868C277.202 6.55567 279.363 8.39346 281.1 9.86997C282.969 11.4597 284.346 12.6306 287.547 9.10128C295.409 0.430374 305.319 16.0026 305.319 16.0026C305.319 16.0026 322.641 7.11057 327.19 20.6506C331.74 34.1906 315.994 36.7509 307.967 34.593C306.093 34.0892 304.178 35.3559 301.855 36.8927C299.049 38.7492 295.646 40.9999 291 40.9999C286.389 40.9999 283.272 38.7834 280.673 36.9353C278.486 35.3799 276.666 34.0854 274.63 34.593Z" fill="url(#paint0_linear)"/>
<g clip-path="url(#clip0)">
<path d="M71.917 202.298C71.917 202.298 76.058 194.563 88.48 194.104C100.901 193.645 106.521 196.681 119.763 195.547C134.747 194.263 137.288 186.45 161.303 185.499C185.319 184.549 178.762 191.162 213.444 192.616C235.531 193.541 243.79 188.797 262.386 188.142C294.772 187 301.264 202.298 301.264 202.298H71.917Z" fill="#96D0A7"/>
<path d="M107.039 202.39C107.039 202.39 109.611 162.526 101.574 164.294C93.537 166.062 105.271 202.39 105.271 202.39H107.039Z" fill="#71B791"/>
<path d="M108.19 202.39C108.19 202.39 110.673 154.84 118.71 156.608C126.747 158.376 109.958 202.39 109.958 202.39H108.19Z" fill="#71B791"/>
<path d="M104.124 203.072C104.124 203.072 99.67 183.111 95.651 183.995C91.633 184.879 103.239 203.072 103.239 203.072H104.124Z" fill="#71B791"/>
<path d="M110.714 203.072C110.714 203.072 117.814 183.111 121.832 183.995C125.851 184.879 111.598 203.072 111.598 203.072H110.714Z" fill="#71B791"/>
<path d="M269.32 202.51C269.32 202.51 271.44 169.66 264.817 171.117C258.194 172.575 267.863 202.51 267.863 202.51H269.32Z" fill="#71B791"/>
<path d="M270.269 202.51C270.269 202.51 272.315 163.326 278.938 164.784C285.561 166.241 271.726 202.51 271.726 202.51H270.269Z" fill="#71B791"/>
<path d="M266.918 203.072C266.918 203.072 263.248 186.623 259.936 187.352C256.625 188.08 266.189 203.072 266.189 203.072H266.918Z" fill="#71B791"/>
<path d="M272.349 203.072C272.349 203.072 278.199 186.623 281.51 187.352C284.822 188.08 273.077 203.072 273.077 203.072H272.349Z" fill="#71B791"/>
<path d="M59 203.43H316.1V202.361H59" fill="#CABAB1"/>
<path d="M292.265 74.981L238.269 74.918C238.269 74.918 238.532 72.526 244.534 70.619C250.536 68.712 254.835 73.622 261.62 70.639C268.406 67.656 272.008 63.369 280.744 65.772C289.48 68.174 292.265 74.981 292.265 74.981Z" fill="#FEFEFE"/>
<path d="M131.917 112.835L96.57 112.794C96.57 112.794 96.743 110.984 100.672 109.54C104.601 108.096 107.415 111.81 111.857 109.553C116.298 107.295 118.657 104.051 124.375 105.867C130.093 107.684 131.917 112.835 131.917 112.835Z" fill="#FEFEFE"/>
<path d="M152.188 69.008C151.896 66.467 148.605 60.706 151.849 59.452C153.443 58.835 156.813 59.06 158.407 58.356C160.478 57.44 161.978 54.39 164.047 53.483C164.721 53.187 165.449 52.949 166.174 53.009C166.879 53.068 167.514 53.403 168.096 53.774C169.879 54.913 171.682 58.155 172.723 59.962" fill="#D7A059"/>
<path d="M188.025 60.192C190.296 65.226 180.443 69.551 168.083 75.128C155.722 80.704 145.533 85.42 143.262 80.387C140.991 75.353 150.006 68.107 162.367 62.531C174.728 56.955 185.754 55.159 188.025 60.192Z" fill="#E7B46C"/>
<path d="M174.491 64.878C174.491 64.878 179.577 74.006 190.488 68.932C201.4 63.858 209.945 78.277 202.681 88.107L187.891 84.079L177.863 77.381L174.491 64.878Z" fill="#38364C"/>
<path d="M172.231 84.229L181.317 89.775L185.636 81.957L172.134 74.036L172.231 84.229Z" fill="#F6A290"/>
<path d="M176.483 86.825C176.324 86.728 174.843 81.547 174.843 81.547L173.266 84.861L176.483 86.825Z" fill="#38364C"/>
<path d="M156.259 70.953C156.259 70.953 153.104 74.642 156.775 79.423C156.775 79.423 159.474 82.858 163.398 87.771C165.472 90.367 169.511 90.497 171.536 87.862C172.776 86.249 173.943 84.194 174.473 81.769L174.93 78C175.233 68.306 163.257 63.251 156.726 70.421C156.57 70.592 156.414 70.77 156.259 70.953Z" fill="#F6A290"/>
<path d="M161.197 83.887L160.857 86.877C160.811 87.288 161.267 87.565 161.609 87.334L163.424 86.113L161.197 83.887Z" fill="#F6A290"/>
<path d="M159.369 79.375C159.369 79.375 157.984 80.2 158.352 80.828C158.352 80.828 158.611 81.246 159.803 80.501C160.996 79.755 161.233 79.442 161.095 78.973C160.957 78.504 159.985 78.934 159.369 79.375Z" fill="#38364C"/>
<path d="M162.107 82.303C162.404 82.546 162.454 82.978 162.218 83.266C161.983 83.554 161.551 83.59 161.254 83.346C160.957 83.103 160.907 82.671 161.143 82.383C161.378 82.095 161.81 82.059 162.107 82.303Z" fill="#38364C"/>
<path d="M162.991 87.243L164.305 85.786C164.305 85.786 165.062 87.009 163.69 88.107L162.991 87.243Z" fill="#FEFEFE"/>
<path d="M168.083 75.128C168.083 75.128 158.563 78.648 154.807 74.981C154.807 74.981 154.738 64.949 165.234 62.06C167.681 61.386 171.343 61.967 173.281 63.605C176.418 66.255 176.53 70.199 177.863 77.381C177.863 77.381 175.654 79.255 171.844 76.484C171 75.87 168.083 75.128 168.083 75.128Z" fill="#38364C"/>
<path d="M163.182 75.844L169.4 78.023L167.097 73.004L163.182 75.844Z" fill="#38364C"/>
<path d="M173.275 74.41C174.213 75.917 173.752 77.899 172.244 78.837C170.737 79.775 168.754 79.313 167.817 77.806C166.879 76.298 167.341 74.316 168.848 73.378C170.356 72.44 172.338 72.902 173.275 74.41Z" fill="#F6A290"/>
<path d="M169.896 77.27L169.885 77.251C169.825 77.152 169.571 76.662 169.574 76.157C169.574 75.911 169.628 75.667 169.78 75.437C169.933 75.208 170.189 74.983 170.631 74.799C170.762 74.744 170.824 74.594 170.77 74.462C170.715 74.331 170.565 74.269 170.434 74.323C169.919 74.536 169.567 74.826 169.351 75.153C169.134 75.48 169.059 75.835 169.059 76.157C169.064 76.917 169.449 77.521 169.459 77.542C169.534 77.662 169.693 77.699 169.813 77.624C169.934 77.549 169.971 77.39 169.896 77.27Z" fill="#38364C"/>
<path d="M150.687 76.037C150.687 76.037 162.08 66.697 180.429 63.619C183.323 59.252 182.442 60.541 182.442 60.541C182.442 60.541 160.854 57.234 151.202 72.09C141.032 87.744 150.907 78.558 150.907 78.558" fill="#E7B46C"/>
<path d="M202.875 193.832L210.828 193.798L208.877 180.804L200.924 180.837L202.875 193.832Z" fill="#EBA47C"/>
<path d="M210.656 192.514L200.326 192.557L191.95 196.108C190.286 196.971 189.246 198.693 189.254 200.567L213.015 200.468L211.625 193.394C211.579 192.894 211.159 192.512 210.656 192.514Z" fill="#A05F54"/>
<path d="M199.506 192.938L201.223 190.591C201.633 190.031 202.327 189.743 203.009 189.87C204.001 190.054 205.194 190.747 205.019 193.054L199.506 192.938Z" fill="#A05F54"/>
<path d="M213.142 201.791L189.259 201.891L189.254 200.567L213.136 200.467L213.142 201.791Z" fill="#2D2B2D"/>
<path d="M213.144 202.352L202.501 202.397L202.492 200.512L213.136 200.467L213.144 202.352Z" fill="#2D2B2D"/>
<path d="M194.292 202.431L189.261 202.452L189.254 200.567L194.284 200.546L194.292 202.431Z" fill="#2D2B2D"/>
<path d="M200.912 202.403L195.881 202.425L195.873 200.539L200.904 200.518L200.912 202.403Z" fill="#2D2B2D"/>
<path d="M219.509 131.166C218.956 131.537 209.676 158.734 209.676 158.734L212.222 185.394L198.567 186.57L194.429 164.426C193.631 159.96 193.948 155.245 195.327 151.066L206.754 116.411L220.052 113.105L219.509 131.166Z" fill="#C27066"/>
<path d="M229.631 193.832L237.584 193.798L235.633 180.804L227.68 180.837L229.631 193.832Z" fill="#EBA47C"/>
<path d="M237.412 192.514L227.082 192.557L218.706 196.108C217.042 196.971 216.002 198.693 216.009 200.567L239.771 200.468L238.381 193.394C238.335 192.894 237.915 192.512 237.412 192.514Z" fill="#A05F54"/>
<path d="M226.262 192.938L227.979 190.591C228.389 190.031 229.083 189.743 229.765 189.87C230.756 190.054 231.95 190.747 231.775 193.054L226.262 192.938Z" fill="#A05F54"/>
<path d="M239.898 201.791L216.015 201.891L216.009 200.567L239.892 200.467L239.898 201.791Z" fill="#2D2B2D"/>
<path d="M239.9 202.352L229.256 202.397L229.248 200.512L239.892 200.467L239.9 202.352Z" fill="#2D2B2D"/>
<path d="M221.048 202.431L216.017 202.452L216.009 200.567L221.04 200.546L221.048 202.431Z" fill="#2D2B2D"/>
<path d="M227.668 202.403L222.637 202.425L222.629 200.539L227.66 200.518L227.668 202.403Z" fill="#2D2B2D"/>
<path d="M231.858 107.822C231.858 107.822 239.13 113.969 234.293 131.166L231.633 156.772L239.171 184.435L224.508 185.406L218.092 164.152C216.585 158.632 215.882 156.195 216.028 150.287L216.54 114.351L231.858 107.822Z" fill="#C27066"/>
<path d="M216.921 138.967V128.918L211.847 125.723L211.44 126.369L216.158 129.34V138.967H216.921Z" fill="#AD5955"/>
<path d="M181.042 90.786C179.797 86.584 182.185 82.097 186.416 80.953C188.521 80.383 191.775 79.322 196.634 80.502C215.936 85.184 233.879 108.476 233.879 108.476C233.879 108.476 223.582 117.397 204.733 118.532C204.733 118.532 197.717 106.006 185.793 100.375C183.737 99.405 182.172 94.601 181.042 90.786Z" fill="#757EBC"/>
<path d="M180.718 88.707L181.274 117.263C180.875 121.502 182.651 126.034 186.909 126.046C190.718 126.057 193.883 123.115 194.15 119.316L195.748 93.258C196.034 89.181 191.977 84.148 187.891 84.079C184.167 84.016 181.067 84.998 180.718 88.707Z" fill="#757EBC"/>
<path d="M195.26 106.765L195.398 92.445L194.635 92.438L194.496 106.757" fill="#5A6BB0"/>
<path d="M195.26 106.765L195.398 92.445L194.635 92.438L194.496 106.757" fill="#5A6BB0"/>
<path d="M136.524 173.575L152.581 172.571L155.936 178.398L136.931 176.098L136.524 173.575Z" fill="#D7A059"/>
<path d="M136.524 173.575L133.301 171.047L132.691 178.409L136.931 176.098L136.524 173.575Z" fill="#D7A059"/>
<path d="M134.102 174.883C133.897 176.913 133.162 178.502 132.459 178.431C131.756 178.36 131.353 176.657 131.557 174.627C131.761 172.596 132.497 171.008 133.199 171.078C133.902 171.149 134.306 172.852 134.102 174.883Z" fill="#C27066"/>
<path d="M168.428 167.398L167.007 167.324C167.008 167.312 167.061 165.824 166.282 161.485C165.625 157.823 166.192 154.613 166.647 152.034C167.317 148.238 167.512 146.517 165.121 145.499C164.004 145.025 162.98 145.02 161.993 145.491C159.004 146.914 157.495 152.065 157.48 152.118L156.112 151.724C156.181 151.488 157.821 145.902 161.382 144.206C162.74 143.56 164.185 143.555 165.678 144.19C169.211 145.694 168.672 148.747 168.048 152.282C167.589 154.878 167.07 157.821 167.682 161.234C168.5 165.792 168.432 167.335 168.428 167.398Z" fill="#C27066"/>
<path d="M142.09 163.32L157.098 180.141C157.098 180.141 166.915 177.731 171.17 167.7L156.597 150.688L142.09 163.32Z" fill="#E7B46C"/>
<path d="M144.09 165.623L158.588 153.006L157.92 152.238L143.422 164.855" fill="#D7A059"/>
<path d="M167.852 151.324C170.238 149.63 170.799 146.322 169.105 143.936C167.411 141.55 164.104 140.989 161.717 142.683C159.331 144.377 158.77 147.684 160.464 150.071C162.158 152.457 165.466 153.018 167.852 151.324Z" fill="#F6A291"/>
<path d="M159.588 145.986C159.588 145.986 157.671 144.516 159.808 142.738C161.945 140.959 165.689 139.843 169.105 143.936L159.588 145.986Z" fill="#F6A291"/>
<path d="M162.818 140.211L183.999 114.628C186.489 111.596 189.505 112.254 192.262 115.046C194.817 117.634 194.801 121.799 192.229 124.368L171.035 145.623L162.818 140.211Z" fill="#757EBC"/>
<path d="M173.487 77.406C173.487 77.406 175.88 78.411 178.493 83.508C181.805 89.971 193.745 91.488 196.634 80.502L184.58 76.107L174.874 72.032L175.88 74.561L173.487 77.406Z" fill="#38364C"/>
</g>
<defs>
<linearGradient id="paint0_linear" x1="328" y1="0.311745" x2="34.4509" y2="0.311745" gradientUnits="userSpaceOnUse">
<stop stop-color="#FFC36E"/>
<stop offset="1" stop-color="#FED57F"/>
</linearGradient>
<clipPath id="clip0">
<rect width="257.101" height="150.43" fill="white" transform="translate(59 53)"/>
</clipPath>
</defs>
</svg>
